<?xml version="1.0" encoding="UTF-8"?>
<svg xmlns="http://www.w3.org/2000/svg" width="729.69pt" height="150pt" viewBox="0 0 729.69 150">
 <g transform="translate(-27.305 -44.801)">
  <path d="m88.61 111.94 50.268-63.98h-34.729l-46.813 63.608v-63.608h-30.03v140.44h30.03v-73.482l47.197 73.482h36.171z" fill="#cc1e2e"/>
  <g transform="matrix(2.9774 0 0 2.9774 -53.993 -88.591)" clip-path="url(#sprea)">
   <path d="m140.28 80.805c-2.7812 2.9961-6.3086 4.4922-10.582 4.4922-4.3633 0-7.9258-1.4844-10.695-4.4609-2.7734-2.9727-4.1602-6.7383-4.1602-11.293 0-4.4883 1.4102-8.2539 4.2227-11.293 2.8125-3.0391 6.3594-4.5586 10.633-4.5586 4.2109 0 7.7227 1.5234 10.535 4.5781 2.8125 3.0469 4.2226 6.8086 4.2226 11.273 0 4.5117-1.3945 8.2656-4.1758 11.262m44.434-34.941v27.773c0 3.8633-0.87891 6.7852-2.6406 8.7617-1.7617 1.9766-4.3594 2.9648-7.7969 2.9648-3.418 0-5.9844-0.98047-7.7031-2.9492-1.7188-1.9648-2.5742-4.8906-2.5742-8.7773v-27.773h-10.023v17.141c-0.27344-1.0195-0.60547-2.0195-1.0156-2.9961-1.2461-2.9844-3.0586-5.6406-5.4453-7.9609-2.3828-2.2969-5.1289-4.0781-8.2305-5.3477-3.1055-1.2656-6.3008-1.8984-9.5859-1.8984-3.3086 0-6.5234 0.63281-9.6484 1.8984-3.125 1.2695-5.8711 3.0508-8.2344 5.3477-2.4062 2.3203-4.2305 4.9688-5.4766 7.9453-0.47266 1.125-0.85156 2.2812-1.1445 3.4648v-17.594h-10.086v18.914h-20.457v-18.914h-10.086v47.168h10.086v-19.719h20.457v19.719h10.086v-17.484c0.39062 1.582 0.93359 3.1133 1.6445 4.5977 1.5781 3.2852 3.8516 6.1094 6.8125 8.4727 2.3008 1.8242 4.8281 3.2266 7.5898 4.207 2.7578 0.97656 5.5781 1.4648 8.457 1.4648 3.2852 0 6.4648-0.625 9.5352-1.8672 3.0742-1.25 5.8359-3.043 8.2812-5.3828 2.3633-2.2773 4.1719-4.918 5.4297-7.9258 0.42578-1.0234 0.77734-2.0703 1.0586-3.1367 0.13281 6.0117 1.7969 10.547 5.0312 13.574 3.375 3.1602 8.5078 4.7383 15.402 4.7383 6.7852 0 11.867-1.5781 15.238-4.7383 3.375-3.1562 5.0586-7.9336 5.0586-14.336v-29.352z" fill="#0c3f63"/>
  </g>
  <g fill="#0c3f63">
   <path d="m665.62 188.4v-115.5h-19.074l2.7681-23.599h44.603v139.1z"/>
   <path d="m603.18 188.4v-115.5h-19.074l2.7681-23.599h44.603v139.1z"/>
   <path d="m745.51 169.56c0 7.4436-5.9316 13.364-13.305 13.364-7.3854 0-13.375-5.92-13.375-13.364 0-7.3273 5.9898-13.317 13.375-13.317 7.3738 0 13.305 5.9898 13.305 13.317m-36.427 0c3.5124 7.3854 11.747 14.585 23.122 14.585 11.305 0 19.598-7.1994 23.098-14.585-3.5008-7.2691-11.793-14.468-23.098-14.468-11.375 0-19.609 7.1994-23.122 14.468m47.918 0c0 13.922-10.886 25.238-24.796 25.238-13.864 0-24.866-11.317-24.866-25.238 0-13.806 11.003-25.122 24.866-25.122 13.91 0 24.796 11.317 24.796 25.122"/>
  </g>
  <path d="m554.25 126.3-17.19-12.491h21.249l6.5713-20.202 6.5597 20.202h21.249l-17.19 12.491 6.5713 20.202-17.19-12.48-17.19 12.48z" fill="#cc1e2e"/>
 </g>
</svg>